<svg id="Capa_1" data-name="Capa 1" xmlns="http://www.w3.org/2000/svg" viewBox="0 0 447.94 511.94"><defs><style>.cls-1{fill:#e2574c;}.cls-2{fill:#fff;}.cls-3{fill:#fffefe;}.cls-4{fill:#b5362a;}.cls-5{fill:#e2584d;}</style></defs><path class="cls-1" d="M521.39,307.56V649.41c-.78,9.26-4.11,17-12.05,22.62-4.62,3.25-9.93,3-14.94,4.37H100.59c-9.26-.78-17-4.11-22.61-12-3.26-4.62-3-9.93-4.38-14.94V191.6c.78-9.26,4.11-17,12.05-22.61,4.62-3.26,9.93-3.05,14.94-4.37H377.46a8.08,8.08,0,0,1,1.1,1.49A39.41,39.41,0,0,1,379.7,177c0,32.46-.08,64.91,0,97.37,0,14.06,7.13,24.92,19,29.54a38.35,38.35,0,0,0,14.17,2.45q47.68-.08,95.37,0a85.86,85.86,0,0,1,11.45.58A3.64,3.64,0,0,1,521.39,307.56Z" transform="translate(-73.53 -164.53)"/><path class="cls-2" d="M377.59,165.45a1.15,1.15,0,0,0-.13-.83q70.21,0,140.43-.09c3,0,3.59.6,3.58,3.58q-.18,69.72-.08,139.45l-1,0a7.6,7.6,0,0,1-4.81-2.38c-.47-.48-1-.93-1.43-1.4C470.91,259.89,426.23,217.51,383,173.68A21.32,21.32,0,0,1,377.59,165.45Z" transform="translate(-73.53 -164.53)"/><path class="cls-3" d="M100.59,164.62c-10.29,2.93-19,8-23.7,18.15-1.32,2.84-2.2,5.89-3.29,8.83,0-8.08.12-16.18-.07-24.26,0-2.34.45-2.85,2.8-2.8C84.41,164.73,92.5,164.62,100.59,164.62Z" transform="translate(-73.53 -164.53)"/><path class="cls-3" d="M73.6,649.41c2.89,10.16,7.87,18.79,17.85,23.52,2.93,1.39,6.09,2.33,9.14,3.47-8.16,0-16.33-.1-24.49.07-2.15,0-2.61-.42-2.56-2.57C73.7,665.74,73.6,657.57,73.6,649.41Z" transform="translate(-73.53 -164.53)"/><path class="cls-3" d="M494.4,676.4c10.29-2.93,19-8,23.7-18.16,1.32-2.84,2.2-5.88,3.29-8.83,0,8.16-.1,16.33.06,24.49,0,2.15-.41,2.61-2.56,2.57C510.73,676.3,502.56,676.4,494.4,676.4Z" transform="translate(-73.53 -164.53)"/><path class="cls-4" d="M377.59,165.45c.88.74,1.81,1.43,2.62,2.24q69.27,69,138.51,138c.58.58,1.1,1.23,1.64,1.85-1.49,1.53-3.43,1-5.2,1q-52.63,0-105.29,0c-17.47,0-32.16-13.67-32.29-30.79C377.29,240.31,377.55,202.88,377.59,165.45Z" transform="translate(-73.53 -164.53)"/><path class="cls-2" d="M289.56,391.52c4.16,0,8.32-.06,12.48,0,14,.23,23.09,6.5,27.32,19.73a52.07,52.07,0,0,1,.09,32.42c-4.13,12.73-13,19.33-26.36,19.75-9.31.29-18.64-.05-28,.12-3,.06-3.54-1.16-3.53-3.81.08-21.47.11-42.95,0-64.42,0-3.15,1-4,4-3.86C280.23,391.68,284.9,391.52,289.56,391.52Z" transform="translate(-73.53 -164.53)"/><path class="cls-2" d="M222.64,391.92c6.16,0,12.33-.36,18.45.08,10.74.75,17.82,8.42,18.42,19.3.72,12.83-5.22,21.84-16,24.19-6.4,1.4-12.92,1.17-19.39.93-3.59-.13-5,.66-4.8,4.59.36,6.31,0,12.65.14,19,0,2.45-.52,3.46-3.28,3.58-11.49.48-11.48.59-11.48-10.83,0-18.49.2-37-.14-55.46-.09-5,1.45-6.31,6.12-5.84,4,.4,8,.08,12,.08Z" transform="translate(-73.53 -164.53)"/><path class="cls-2" d="M343.72,427c0-10.15.14-20.31-.08-30.46-.08-3.69.61-5.22,4.83-5.12,13.3.3,26.62.26,39.93,0,3.77-.07,5.24,1,4.68,4.71a13.08,13.08,0,0,0,0,3.48c.37,3-.81,4-3.9,4-9-.19-18,.08-27-.14-3.15-.07-3.85.95-3.88,3.95-.15,13.12-.25,13.12,12.61,13.12,4.66,0,9.32.11,14-.05,2.58-.09,3.39.76,3.47,3.39.25,8.66.37,8.65-8.14,8.65-6.16,0-12.32.12-18.47-.05-2.6-.07-3.47.72-3.42,3.37.15,8,0,16,.11,24,0,2.69-.59,3.71-3.55,3.78-11.21.27-11.2.39-11.2-10.62Z" transform="translate(-73.53 -164.53)"/><path class="cls-5" d="M286.26,427.06c0-6.65.12-13.3-.06-19.95-.07-2.83.84-3.85,3.68-3.64s6-.06,9,.07c10.71.46,15.83,4.79,17.33,15.44a56.32,56.32,0,0,1-.47,19.84c-1.9,8.68-5.91,12.17-14.76,12.63-3.82.2-7.66-.12-11.47.09-2.8.16-3.29-1.13-3.26-3.54C286.33,441,286.26,434,286.26,427.06Z" transform="translate(-73.53 -164.53)"/><path class="cls-5" d="M228.37,403.51a32.19,32.19,0,0,1,8.16.63c5.2,1.2,8.09,4.67,8.09,9.86s-3,8.68-8.15,9.82c-4.77,1-9.6.52-14.41.71-2.37.1-2.71-1.13-2.68-3.06.07-4.16.28-8.35-.06-12.48s.64-6.41,5.31-5.5A24.71,24.71,0,0,0,228.37,403.51Z" transform="translate(-73.53 -164.53)"/></svg>